<svg width="119" height="32" viewBox="0 0 119 32" fill="none" xmlns="http://www.w3.org/2000/svg">
<path d="M16 32C24.8366 32 32 24.8366 32 16C32 7.16344 24.8366 0 16 0C7.16344 0 0 7.16344 0 16C0 24.8366 7.16344 32 16 32Z" fill="#273B7A"/>
<path d="M17.2367 31.9528C24.1199 31.4267 29.7843 26.5449 31.4801 20.0584L22.6016 11.1799L14.2006 17.2173L17.0424 20.0592L9.75912 24.4753L17.2367 31.9528Z" fill="#121149"/>
<path d="M18.5274 7.10581H10.7258C9.99275 7.10581 9.3985 7.70012 9.3985 8.43312V23.5669C9.3985 24.2999 9.99281 24.8942 10.7258 24.8942H21.2742C22.0072 24.8942 22.6015 24.2999 22.6015 23.5669L22.6016 11.1799L18.5274 7.10581Z" fill="#008AFE"/>
<path d="M20.3762 14.8385H11.5491V15.4798H20.3762V14.8385Z" fill="white"/>
<path d="M20.3762 16.4234H11.5491V17.0648H20.3762V16.4234Z" fill="white"/>
<path d="M20.3762 18.2066H11.5491V18.8479H20.3762V18.2066Z" fill="white"/>
<path d="M16.1513 19.8669H11.5491V20.5082H16.1513V19.8669Z" fill="white"/>
<path d="M19.8547 11.1799H22.6016L18.5274 7.10581L18.5275 9.85262C18.5274 10.5856 19.1217 11.1799 19.8547 11.1799Z" fill="#55C2F9"/>
<path d="M40.2913 23V9.90909H42.6627V21.0121H48.4284V23H40.2913ZM50.3843 23V13.1818H52.6983V23H50.3843ZM51.5477 11.7884C51.1812 11.7884 50.8659 11.6669 50.6017 11.424C50.3375 11.1768 50.2054 10.8807 50.2054 10.5355C50.2054 10.1861 50.3375 9.88991 50.6017 9.64702C50.8659 9.39986 51.1812 9.27628 51.5477 9.27628C51.9184 9.27628 52.2338 9.39986 52.4937 9.64702C52.7579 9.88991 52.89 10.1861 52.89 10.5355C52.89 10.8807 52.7579 11.1768 52.4937 11.424C52.2338 11.6669 51.9184 11.7884 51.5477 11.7884ZM63.8476 13.1818L60.3511 23H57.7943L54.2979 13.1818H56.7652L59.0216 20.4751H59.1239L61.3866 13.1818H63.8476ZM69.4614 23.1918C68.477 23.1918 67.6269 22.9872 66.911 22.5781C66.1993 22.1648 65.6517 21.581 65.2682 20.8267C64.8847 20.0682 64.6929 19.1754 64.6929 18.1484C64.6929 17.1385 64.8847 16.2521 65.2682 15.4893C65.656 14.7223 66.1972 14.1257 66.8918 13.6996C67.5864 13.2692 68.4024 13.054 69.3399 13.054C69.9451 13.054 70.5161 13.152 71.053 13.348C71.5942 13.5398 72.0715 13.8381 72.4848 14.2429C72.9024 14.6477 73.2306 15.1634 73.4692 15.7898C73.7078 16.4119 73.8272 17.1534 73.8272 18.0142V18.7237H65.7796V17.1641H71.6091C71.6049 16.7209 71.509 16.3267 71.3215 15.9815C71.134 15.6321 70.8719 15.3572 70.5353 15.157C70.2029 14.9567 69.8151 14.8565 69.3719 14.8565C68.8989 14.8565 68.4834 14.9716 68.1255 15.2017C67.7675 15.4276 67.4884 15.7259 67.2881 16.0966C67.0921 16.4631 66.9919 16.8658 66.9877 17.3047V18.6662C66.9877 19.2372 67.0921 19.7273 67.3009 20.1364C67.5097 20.5412 67.8016 20.8523 68.1766 21.0696C68.5516 21.2827 68.9905 21.3892 69.4934 21.3892C69.83 21.3892 70.1347 21.3423 70.4074 21.2486C70.6801 21.1506 70.9166 21.0078 71.1169 20.8203C71.3172 20.6328 71.4685 20.4006 71.5708 20.1236L73.7313 20.3665C73.5949 20.9375 73.335 21.4361 72.9515 21.8622C72.5722 22.2841 72.0864 22.6122 71.4941 22.8466C70.9017 23.0767 70.2242 23.1918 69.4614 23.1918ZM80.3231 23H75.887V9.90909H80.4126C81.7123 9.90909 82.8288 10.1712 83.762 10.6953C84.6995 11.2152 85.4197 11.9631 85.9225 12.9389C86.4253 13.9148 86.6768 15.0824 86.6768 16.4418C86.6768 17.8054 86.4232 18.9773 85.9161 19.9574C85.4133 20.9375 84.6867 21.6896 83.7364 22.2138C82.7904 22.7379 81.6526 23 80.3231 23ZM78.2584 20.9482H80.208C81.12 20.9482 81.8806 20.782 82.49 20.4496C83.0994 20.1129 83.5575 19.6122 83.8643 18.9474C84.1711 18.2784 84.3245 17.4432 84.3245 16.4418C84.3245 15.4403 84.1711 14.6094 83.8643 13.9489C83.5575 13.2841 83.1036 12.7876 82.5028 12.4595C81.9062 12.1271 81.1647 11.9609 80.2783 11.9609H78.2584V20.9482ZM93.1104 23.1918C92.1516 23.1918 91.3206 22.9808 90.6175 22.5589C89.9143 22.1371 89.3689 21.5469 88.9811 20.7884C88.5976 20.0298 88.4058 19.1435 88.4058 18.1293C88.4058 17.1151 88.5976 16.2266 88.9811 15.4638C89.3689 14.701 89.9143 14.1087 90.6175 13.6868C91.3206 13.2649 92.1516 13.054 93.1104 13.054C94.0692 13.054 94.9001 13.2649 95.6033 13.6868C96.3064 14.1087 96.8497 14.701 97.2332 15.4638C97.621 16.2266 97.8149 17.1151 97.8149 18.1293C97.8149 19.1435 97.621 20.0298 97.2332 20.7884C96.8497 21.5469 96.3064 22.1371 95.6033 22.5589C94.9001 22.9808 94.0692 23.1918 93.1104 23.1918ZM93.1231 21.3381C93.643 21.3381 94.0777 21.1953 94.4271 20.9098C94.7766 20.62 95.0365 20.2322 95.207 19.7464C95.3817 19.2607 95.469 18.7195 95.469 18.1229C95.469 17.522 95.3817 16.9787 95.207 16.4929C95.0365 16.0028 94.7766 15.6129 94.4271 15.3232C94.0777 15.0334 93.643 14.8885 93.1231 14.8885C92.5905 14.8885 92.1473 15.0334 91.7936 15.3232C91.4442 15.6129 91.1821 16.0028 91.0074 16.4929C90.8369 16.9787 90.7517 17.522 90.7517 18.1229C90.7517 18.7195 90.8369 19.2607 91.0074 19.7464C91.1821 20.2322 91.4442 20.62 91.7936 20.9098C92.1473 21.1953 92.5905 21.3381 93.1231 21.3381ZM104.061 23.1918C103.081 23.1918 102.24 22.9766 101.537 22.5462C100.838 22.1158 100.299 21.5213 99.9195 20.7628C99.5445 20 99.357 19.1222 99.357 18.1293C99.357 17.1321 99.5488 16.2521 99.9323 15.4893C100.316 14.7223 100.857 14.1257 101.556 13.6996C102.259 13.2692 103.09 13.054 104.049 13.054C104.846 13.054 105.551 13.201 106.164 13.495C106.782 13.7848 107.275 14.196 107.641 14.7287C108.007 15.2571 108.216 15.875 108.267 16.5824H106.056C105.966 16.1094 105.753 15.7152 105.417 15.3999C105.084 15.0803 104.639 14.9205 104.081 14.9205C103.608 14.9205 103.192 15.0483 102.834 15.304C102.476 15.5554 102.197 15.9176 101.997 16.3906C101.801 16.8636 101.703 17.4304 101.703 18.0909C101.703 18.7599 101.801 19.3352 101.997 19.8168C102.193 20.294 102.468 20.6626 102.821 20.9226C103.179 21.1783 103.599 21.3061 104.081 21.3061C104.422 21.3061 104.726 21.2422 104.995 21.1143C105.267 20.9822 105.495 20.7926 105.679 20.5455C105.862 20.2983 105.988 19.9979 106.056 19.6442H108.267C108.212 20.3388 108.007 20.9545 107.654 21.4915C107.3 22.0241 106.819 22.4418 106.209 22.7443C105.6 23.0426 104.884 23.1918 104.061 23.1918ZM117.927 15.777L115.818 16.0071C115.758 15.794 115.654 15.5938 115.505 15.4062C115.36 15.2188 115.164 15.0675 114.917 14.9524C114.67 14.8374 114.367 14.7798 114.009 14.7798C113.528 14.7798 113.123 14.8842 112.795 15.093C112.471 15.3018 112.311 15.5724 112.315 15.9048C112.311 16.1903 112.415 16.4226 112.628 16.6016C112.846 16.7805 113.204 16.9276 113.702 17.0426L115.377 17.4006C116.306 17.6009 116.996 17.9183 117.448 18.353C117.904 18.7876 118.134 19.3565 118.138 20.0597C118.134 20.6776 117.953 21.223 117.595 21.696C117.241 22.1648 116.749 22.5312 116.118 22.7955C115.488 23.0597 114.763 23.1918 113.945 23.1918C112.743 23.1918 111.776 22.9403 111.043 22.4375C110.31 21.9304 109.873 21.2251 109.733 20.3217L111.989 20.1044C112.091 20.5476 112.309 20.8821 112.641 21.108C112.974 21.3338 113.406 21.4467 113.939 21.4467C114.488 21.4467 114.93 21.3338 115.262 21.108C115.599 20.8821 115.767 20.603 115.767 20.2706C115.767 19.9893 115.658 19.7571 115.441 19.5739C115.228 19.3906 114.895 19.25 114.444 19.152L112.769 18.8004C111.827 18.6044 111.131 18.2741 110.679 17.8097C110.227 17.3409 110.003 16.7486 110.008 16.0327C110.003 15.4276 110.167 14.9034 110.5 14.4602C110.836 14.0128 111.303 13.6676 111.9 13.4247C112.501 13.1776 113.193 13.054 113.977 13.054C115.128 13.054 116.033 13.299 116.694 13.7891C117.358 14.2791 117.77 14.9418 117.927 15.777Z" fill="white"/>
</svg>
